<svg width="24" height="24" viewBox="0 0 24 24" fill="none" xmlns="http://www.w3.org/2000/svg">
  <path fill-rule="evenodd" clip-rule="evenodd" d="M17.035 6.584c.135.09.215.243.215.405v8.55c0 .2-.122.38-.307.454l-3.054 1.222a.488.488 0 0 1-.336.01l-3.495-1.165-2.888 1.155a.488.488 0 0 1-.67-.454v-8.55c0-.2.122-.38.307-.454l3.054-1.222a.489.489 0 0 1 .336-.01l3.495 1.165 2.888-1.155a.489.489 0 0 1 .455.049ZM13.22 8.562l-2.688-.895v7.52l2.688.896v-7.52Zm.977 7.478 2.077-.831V7.71l-2.077.831v7.499Zm-4.642-.831V7.71l-2.077.831v7.499l2.077-.831Z" fill="#fff"/>
  <rect x="1" y="1" width="22" height="22" rx="11" stroke="#848CA3" stroke-opacity=".54" stroke-width="2"/>
</svg>