<svg width="24" height="24" viewBox="0 0 24 24" fill="none" xmlns="http://www.w3.org/2000/svg">
  <path fill-rule="evenodd" clip-rule="evenodd" d="M15.717 16.943a7.22 7.22 0 0 1-4.383 1.472c-3.981 0-7.209-3.199-7.209-7.145 0-3.946 3.228-7.145 7.21-7.145 3.98 0 7.208 3.199 7.208 7.145a7.077 7.077 0 0 1-1.61 4.5l2.942 2.916-1.2 1.189-2.958-2.932Zm1.13-5.673c0 3.018-2.468 5.464-5.513 5.464s-5.513-2.446-5.513-5.464c0-3.018 2.468-5.464 5.513-5.464s5.513 2.446 5.513 5.464Z" fill="currentColor"/>
</svg>